<svg xmlns="http://www.w3.org/2000/svg" width="149" height="42" viewBox="0 0 149 42"><g><g><path fill="#fff" d="M143.695 35.13c-1.799 3.683-6.959 1.89-10.544 1.2-3.55-.683-7.045-.787-10.673-.336-4.63.576-22.966 1.84-27.75.775-1.648-.368-3.291.22-5.03.24-1.956.02-4.076 1.405-5.899.492-.43-.214-5.889-.103-8.094-.23-3.078-.176-6.17-.075-9.251-.192-3.369-.129-6.735-.275-10.1-.557-3.27-.273-6.65-.305-9.982-.335-1.395-.012-2.778.719-4.193.844-3.565.318-7.148.44-10.716.723a35.218 35.218 0 0 1-6.712-.085c-1.967-.217-4.026-1.127-6.056-.965-3.579.286-7.168.444-10.75.708-3.177.235-3.764-2.388-3.822-5.352-.11-5.544-.54-9.2-.569-14.745-.006-1.062-.03-2.207-.422-3.172.124-2.946-.06-4.541-.124-7.494-.026-1.192.147-2.187 1.363-2.273 1.634-.118 3.47-.705 5.078-.535 4.302.453 8.188-.255 12.501-.281 3.583-.022 7.452.41 11.029.28 2.648-.098 5.024.391 7.634-.111 3.475-.67 17.33-.408 19.776-.102 4.988.624 9.82-.01 14.82.482 2.648.259 10.703-.158 13.375-.135 7.495.067 7.984-.254 15.48-.267 2.032-.004 19.579.601 21.61.38.405-.045.809-.22 1.203-.195 3.579.229 7.162.425 10.73.764 2.934.279 3.098.563 3.363 3.441.08.884.38 1.746.507 2.626.32 2.226-.425 3.691-2.534 4.5-1.026.393-1.689.97-2.324 1.797-1.859 2.414-1.788 3.026.939 4.53.696.384 1.497.64 2.286.812 2.988.655 4.187 1.936 4.25 4.86.02.976-.236 1.957-.366 2.936-.103.785-.28 1.57-.29 2.357-.012.776.718 1.67.257 2.616zM7.048 1.21a8.57 8.57 0 0 1-.008-.126c-1.02.06-2.067.001-3.058.2-3.81.763-4.24 1.554-3.88 5.33.414 4.33.661 8.678.842 13.024.117 2.765.336 5.596-.127 8.297-.118 2.797.457 4.392.58 7.22.047 1.068-.506 4.987.587 5.33 2.037.64 6.053.65 8.27.536 2.448-.127 5.029-.618 7.484-.666 4.4-.09 8.806 1.457 13.196 1.183 4.799-.3 15.154-.517 15.563-.517 3.589 0 6.94.427 10.474 0 2.64-.32 5.393-.973 7.9-.324 2.186.568 10.974.305 13.113.438 1.52.092 3.32-.234 4.841-.114 2.438.189 4.588-.676 7.023-.646 3.425.043 29.716.69 31.638.335 4.224-.78 8.403.266 12.584-.275 1.045-.135 2.174.505 3.284.63 1.09.125 2.33.352 3.284-.008 1.843-.694 3.522-.773 5.353-.073 1.119.428 2.047-.121 2.298-1.222.13-.567.097-1.183.057-1.771-.24-3.558-.577-7.111-.724-10.671-.064-1.557.137-3.148.42-4.688.314-1.7.378-3.156-1.636-3.92-.894-.34-1.18-1.054-.964-1.943.632-2.614.89-5.229.195-7.883-.146-.557.062-1.193-.02-1.776-.148-1.075-.274-2.174-.617-3.198-.578-1.732-1.325-3.102-3.183-3.013-2.872.136-8.147.213-8.544.4-1.487.703-6.412-.676-7.43-.668-4.306.037-22.428.555-26.732.535-1.228-.005-11.365-.615-13.87-.669-2.543-.055-5.403 1.509-7.995 1.004C73.07.687 68.88.877 64.693.75 63.156.703 61.6.893 60.088.703c-1.382-.176-8.856-.037-9.55-.031-5.222.054-13.844-.135-17.93-.058C29.97.247 26.644.236 23.923.28c-5.629.094-11.25.596-16.876.93z"/></g></g></svg>