<svg xmlns="http://www.w3.org/2000/svg" width="49" height="52" viewBox="0 0 49 52"><g><g><path fill="#373737" d="M.596 3.905c-.752 0-.804-2.802-.088-2.987C3.328.193 47.016.9 47.203.908c1.053.022 1.86-.556 1.86 1.697 0 1.35-1.176 1.091-2.032 1.259-2.5.49-2.93 1.2-2.909 4.319.069 10.329.178 20.71.504 31.031.08 2.596.268 9.267.268 12.018 0 1.4-13.679-10.323-14.77-11.364-4.298-3.263-4.57-3.002-7.32-1.233-2.047 1.32-2.719 1.86-4.9 3.406C16.047 43.36 5.55 51.886 5.55 50.788c0-1.376.037-2.814 0-4.322-.337-11.725-.493-23.632-.402-35.455C4.994 7.727 6.79 3.905.596 3.905z"/></g></g></svg>