<svg xmlns="http://www.w3.org/2000/svg" width="67" height="29" viewBox="0 0 67 29"><g><g><path fill="#373737" d="M58.68 25.914c-12.793.967-24.502-1.026-35.852-4.783-2.823-.932-5.434-3.495-7.28-5.962-.89-1.188-.277-4.198.665-5.778.522-.86 3.809-1.25 4.738-.492 10.172 8.38 21.861 8.084 33.932 6.656 2.755-.324 5.869.103 8.421 1.147 1.598.647 3.027 2.985 3.4 4.796.18.886-2.053 2.645-3.507 3.382-1.553.783-3.479.819-4.518 1.034z"/></g><g><path fill="#373737" d="M16.335 8.382C13.932 6.959 10.46 6.199 9.44 3.594c-.102-.263-.034-.64.178-.823 1.05-.913 2.798-.433 4.156-.276 3.283.385 6.541.99 9.808 1.52.443.074.906.181 1.301.39 1.134.598 1.277 1.571.424 2.513-2.453 2.706-5.767 3.36-8.972 1.464zm-.294 18.683c.785-1.383 1.595-2.846 1.93-4.374 1.204-5.447 3.807-9.583 9.112-12.044 1.79-.832 3.227-2.86 4.309-4.653 1.084-1.804.254-3.47-1.937-4.44-.785-.082-2.028-.241-3.275-.336-3.188-.24-6.373-.472-9.563-.668C12.177.277.37-.346.001.306c-.344.62.206 1.891.613 2.759C2.064 6.16 3.728 9.162 5.12 12.28c2.044 4.587 3.913 9.25 5.887 13.87a4.81 4.81 0 0 0 .94 1.419c1.534 1.619 2.964 1.485 4.094-.505z"/></g></g></svg>