<svg xmlns="http://www.w3.org/2000/svg" width="197" height="56" viewBox="0 0 197 56"><g><g><path fill="#ff8b74" d="M173.991 48.536c-5.171-.923-10.264-1.063-15.55-.454-6.744.777-13.46 2.481-20.43 1.045-2.4-.496-4.794.297-7.327.324-2.85.027-5.939 1.896-8.595.663-.627-.289-8.58-.138-11.793-.31-4.484-.238-8.988-.1-13.478-.26-4.908-.173-9.813-.37-14.714-.75-4.765-.369-9.69-.411-14.543-.451-2.032-.018-4.048.969-6.11 1.138-5.193.428-10.413.593-15.611.974-3.276.241-6.477.222-9.78-.114-2.865-.292-5.866-1.52-8.823-1.302-5.214.386-10.443.6-15.66.955-4.63.317-5.485-3.22-5.57-7.22-.16-7.48-.786-12.41-.829-19.893-.01-1.433-.044-2.977-.614-4.28.18-3.974-.088-6.126-.18-10.11-.039-1.607.213-2.95 1.984-3.065 2.382-.16 5.056-.952 7.398-.723 6.269.612 11.93-.343 18.214-.379 5.22-.03 10.857.554 16.068.38 3.858-.134 7.32.526 11.122-.152 5.062-.904 25.25-.55 28.812-.137 7.267.841 14.306-.015 21.592.65 3.858.35 15.593-.213 19.486-.181 10.92.09 11.633-.343 22.554-.361 2.96-.006 8.524.811 11.483.513.59-.06 1.179-.297 1.753-.264 5.214.31 10.434.573 15.633 1.03 4.275.377 4.513.76 4.9 4.643.117 1.192.553 2.356.738 3.543.467 3.003-.62 4.98-3.692 6.07-1.494.53-2.46 1.31-3.386 2.425-2.707 3.257-2.604 4.083 1.368 6.112 1.015.518 2.181.863 3.331 1.095 4.353.884 6.1 2.613 6.192 6.556.03 1.317-.344 2.641-.533 3.962-.15 1.059-.409 2.12-.423 3.18-.018 1.046 1.046 2.254.374 3.529-2.62 4.968-10.138 2.548-15.36 1.619zM10.268 1.155a10.892 10.892 0 0 1-.011-.172c-1.488.081-3.012.003-4.456.271C.251 2.284-.375 3.35.15 8.444c.602 5.841.962 11.708 1.226 17.57.17 3.731.489 7.55-.186 11.194-.171 3.775.667 5.927.846 9.74.068 1.442-.738 6.73.854 7.193 2.968.862 8.82.876 12.048.722 3.568-.17 7.328-.833 10.905-.898 6.411-.12 12.83 1.966 19.225 1.596 6.992-.406 22.078-.698 22.675-.698 5.228.001 10.11.577 15.26 0 3.845-.431 7.857-1.312 11.508-.436 3.186.765 15.989.411 19.106.59 2.214.124 4.837-.315 7.053-.154 3.552.255 6.685-.912 10.231-.871 4.991.057 23.295.93 26.095.452 6.154-1.051 12.242.359 18.334-.37 1.522-.183 3.168.68 4.784.85 1.588.167 3.396.474 4.785-.012 2.685-.937 5.13-1.043 7.8-.099 1.629.578 2.981-.163 3.347-1.648.19-.765.141-1.595.083-2.39-.348-4.8-.841-9.593-1.055-14.396-.094-2.1.199-4.246.612-6.325.458-2.292.551-4.258-2.383-5.288-1.304-.458-1.719-1.422-1.405-2.621.92-3.527 1.296-7.054.283-10.635-.212-.752.091-1.61-.027-2.396-.216-1.45-.4-2.933-.9-4.315-.843-2.336-1.93-4.184-4.637-4.065-4.184.184-11.87.287-12.449.54-2.165.948-9.341-.912-10.825-.901-6.274.05-12.675.748-18.946.722-1.789-.007-16.557-.83-20.208-.902-3.705-.075-7.872 2.035-11.648 1.353-6.084-1.097-12.186-.84-18.288-1.01-2.24-.066-4.508.19-6.71-.066C85.53.233 74.641.42 73.63.428 66.022.502 53.46.246 47.506.351c-3.841-.496-8.686-.51-12.65-.452-8.201.127-16.392.805-24.588 1.256z"/></g></g></svg>