<svg xmlns="http://www.w3.org/2000/svg" width="48" height="6" viewBox="0 0 48 6"><g><g><path fill="#373737" d="M.773 3.368c.266-1.492 1.703-1.08 2.43-1.152 4.623-.462 9.25-.92 13.881-1.151 2.383-.119 4.777.366 7.165.344 3.335-.03 6.672-.207 10.004-.46C36.856.751 39.449.286 42.05.054c1.152-.103 2.329-.065 3.47.17.682.14 1.423.596 1.944 1.244.932 1.156.591 2.996-.593 3.35-1.346.403-2.72.822-4.085.845-5.071.09-10.139.77-15.22-.104-3.021-.52-6.082-.743-9.126-.74-5.067.006-10.134.28-15.2.486-1.186.047-2.95.758-2.468-1.937z"/></g></g></svg>