<svg xmlns="http://www.w3.org/2000/svg" width="136" height="42" viewBox="0 0 136 42"><g><g><path fill="#fff" d="M21.133 24.294zm0 0l2.312 3.297c-.55.384-1.375 1.215-1.607 1.073-.983-.594-1.787-1.481-2.658-2.26l1.953-2.11zm70.024-2.503c-.427-.155 5.941-2.634 9.532-2.046 2.012.33 2.76-1.237 2.457-3.317-.338-2.317-2.214-3.184-3.916-4.265 2.242-1.92 3.002-2.173 4.965-.446 3.828 3.368 8.037 6.56 10.971 10.63 4.401 6.11 10.516 9.567 16.724 13.111 1.171.67 2.411.952 3.502-1.005-.888-.766-1.742-1.649-2.736-2.323-1.585-1.077-3.192-2.17-4.917-2.982-3.369-1.58-5.806-4.091-7.875-7.09-1.304-1.888-2.492-3.966-4.178-5.457-3.726-3.293-7.685-6.328-11.639-9.349-2.332-1.78-3.38-1.638-5.848.121-3.329 2.376-6.654 4.758-10.022 7.08-3.722 2.566-5.565 2.372-7.918-1.39-2.755-4.409-6.155-8.114-10.215-11.319-2.868-2.264-3.276-2.42-6.16.1-2.595 2.269-4.993 4.762-7.587 7.03-5.292 4.627-10.677 9.148-15.986 13.756-1.929 1.674-3.688 3.547-5.635 5.2-2.939 2.494-3.829 2.368-6.265-.541-1.313-1.568-2.535-3.232-3.984-4.663-1.986-1.963-3.479-2.11-5.82-.526-6.273 4.245-11.866 9.309-17.13 14.73C.467 37.87-.64 39.1.45 41.4c1.371-.787 2.66-1.426 3.84-2.223 1.921-1.301 3.721-2.425 6.331-2.13 1.423.16 2.994-1.035 4.504-1.603 1.51-.571 3.05-1.625 4.54-1.562 2.067.088 3.724-.01 5.167-1.673.357-.413 1.54-.583 2.005-.302.492.296.752 1.249.808 1.94.076.942-.14 1.907-.244 3.009 2.812.4 4.554-1.02 6.127-2.413 4.482-3.98 8.907-8.027 13.212-12.194 3.487-3.376 6.71-7.021 10.15-10.444 2.263-2.25 4.69-4.334 7.076-6.454 1.143-1.02 2.5-1.378 3.902-.617 2.706 1.47 5.533 2.936 6.76 5.973 1.098 2.71 2.91 4.798 4.99 6.706 3.76 3.453 7.472 6.972 11.403 10.225 4.032 3.336 8.281 6.416 12.492 9.53.696.516 1.685.639 2.54.944.206-.273.415-.544.623-.818-.82-1.014-1.517-2.177-2.494-3.01-1.257-1.068-2.853-1.741-4.1-2.816-3.34-2.878-7.363-5.154-8.925-9.676z"/></g></g></svg>