<svg xmlns="http://www.w3.org/2000/svg" width="64" height="24" viewBox="0 0 64 24"><g><g><path fill="#373737" d="M5.839 10.324c6.237.757 12.49-.477 18.756.281 3.661.442 7.428.065 11.144-.03 2.786-.075 3.293-.783 2.702-3.419-.706-3.143.378-7.988 3.582-7.034 1.91.571 4.036 2.2 6.32 2.805 1.49.395 3.617 1.505 5.04 2.142 2.503 1.121 3.809 2.356 6.517 3.374.767.29.742.358 2.214 1.023.885.4 1.678 1.056 1.235 2.047-.314.698-2.042 1.277-2.645 1.66-3.135 1.995-4.088 1.64-6.963 3.458-3.379 2.357-10.5 7.031-12.179 6.733-2.35-.413-2.372-2.938-2.4-3.75-.11-1.029-.427-2.866-.321-3.565.232-1.55.031-2.519-1.573-2.489-4.508.078-9.062-.116-13.505.48-3.949.531-7.82.176-11.723.148-4.015-.03-8.025-.412-12.04-.468"/></g></g></svg>